<mxfile host="app.diagrams.net" modified="2022-02-17T08:35:29.358Z" agent="5.0 (Windows NT 10.0; Win64; x64) AppleWebKit/537.36 (KHTML, like Gecko) Chrome/98.0.4758.82 Safari/537.36" etag="NJg40v0Hi-L22T1s6iX2" version="16.5.6" type="github">
  <diagram id="0xRbHX1krIsUfAeVWte9" name="Page-1">
    <mxGraphModel dx="981" dy="526" grid="1" gridSize="10" guides="1" tooltips="1" connect="1" arrows="1" fold="1" page="1" pageScale="1" pageWidth="827" pageHeight="1169" math="0" shadow="0">
      <root>
        <mxCell id="0" />
        <mxCell id="1" parent="0" />
        <mxCell id="hLQaSh5dGtS-NS3V5N7V-1" value="&#39;内&#39;" style="rounded=0;whiteSpace=wrap;html=1;fillColor=#d5e8d4;strokeColor=#82b366;glass=0;shadow=0;sketch=1;fillStyle=zigzag-line;" vertex="1" parent="1">
          <mxGeometry x="280" y="230" width="40" height="20" as="geometry" />
        </mxCell>
        <mxCell id="hLQaSh5dGtS-NS3V5N7V-2" value="&#39;卷&#39;" style="rounded=0;whiteSpace=wrap;html=1;fillColor=#d5e8d4;strokeColor=#82b366;glass=0;shadow=0;sketch=1;fillStyle=zigzag-line;" vertex="1" parent="1">
          <mxGeometry x="320" y="230" width="40" height="20" as="geometry" />
        </mxCell>
        <mxCell id="hLQaSh5dGtS-NS3V5N7V-3" value="&#39;奥&#39;" style="rounded=0;whiteSpace=wrap;html=1;fillColor=#d5e8d4;strokeColor=#82b366;glass=0;shadow=0;sketch=1;fillStyle=zigzag-line;" vertex="1" parent="1">
          <mxGeometry x="360" y="230" width="40" height="20" as="geometry" />
        </mxCell>
        <mxCell id="hLQaSh5dGtS-NS3V5N7V-4" value="&#39;义&#39;" style="rounded=0;whiteSpace=wrap;html=1;fillColor=#d5e8d4;strokeColor=#82b366;glass=0;shadow=0;sketch=1;fillStyle=zigzag-line;" vertex="1" parent="1">
          <mxGeometry x="400" y="230" width="40" height="20" as="geometry" />
        </mxCell>
        <mxCell id="hLQaSh5dGtS-NS3V5N7V-5" value="&#39;\0&#39;" style="rounded=0;whiteSpace=wrap;html=1;fillColor=#d5e8d4;strokeColor=#82b366;glass=0;shadow=0;sketch=1;fillStyle=zigzag-line;" vertex="1" parent="1">
          <mxGeometry x="440" y="230" width="40" height="20" as="geometry" />
        </mxCell>
        <mxCell id="hLQaSh5dGtS-NS3V5N7V-17" value="&#39;内&#39;" style="rounded=0;whiteSpace=wrap;html=1;fillColor=#d5e8d4;strokeColor=#82b366;glass=0;shadow=0;sketch=1;fillStyle=zigzag-line;" vertex="1" parent="1">
          <mxGeometry x="280" y="280" width="40" height="20" as="geometry" />
        </mxCell>
        <mxCell id="hLQaSh5dGtS-NS3V5N7V-18" value="&#39;卷&#39;" style="rounded=0;whiteSpace=wrap;html=1;fillColor=#d5e8d4;strokeColor=#82b366;glass=0;shadow=0;sketch=1;fillStyle=zigzag-line;" vertex="1" parent="1">
          <mxGeometry x="320" y="280" width="40" height="20" as="geometry" />
        </mxCell>
        <mxCell id="hLQaSh5dGtS-NS3V5N7V-19" value="&#39;奥&#39;" style="rounded=0;whiteSpace=wrap;html=1;fillColor=#d5e8d4;strokeColor=#82b366;glass=0;shadow=0;sketch=1;fillStyle=zigzag-line;" vertex="1" parent="1">
          <mxGeometry x="360" y="280" width="40" height="20" as="geometry" />
        </mxCell>
        <mxCell id="hLQaSh5dGtS-NS3V5N7V-20" value="&#39;义&#39;" style="rounded=0;whiteSpace=wrap;html=1;fillColor=#d5e8d4;strokeColor=#82b366;glass=0;shadow=0;sketch=1;fillStyle=zigzag-line;" vertex="1" parent="1">
          <mxGeometry x="400" y="280" width="40" height="20" as="geometry" />
        </mxCell>
        <mxCell id="hLQaSh5dGtS-NS3V5N7V-21" value="&#39;\0&#39;" style="rounded=0;whiteSpace=wrap;html=1;fillColor=#d5e8d4;strokeColor=#82b366;glass=0;shadow=0;sketch=1;fillStyle=zigzag-line;" vertex="1" parent="1">
          <mxGeometry x="440" y="280" width="40" height="20" as="geometry" />
        </mxCell>
        <mxCell id="hLQaSh5dGtS-NS3V5N7V-22" value="&#39;内&#39;" style="rounded=0;whiteSpace=wrap;html=1;fillColor=#d5e8d4;strokeColor=#82b366;glass=0;shadow=0;sketch=1;fillStyle=zigzag-line;" vertex="1" parent="1">
          <mxGeometry x="280" y="330" width="40" height="20" as="geometry" />
        </mxCell>
        <mxCell id="hLQaSh5dGtS-NS3V5N7V-23" value="&#39;卷&#39;" style="rounded=0;whiteSpace=wrap;html=1;fillColor=#d5e8d4;strokeColor=#82b366;glass=0;shadow=0;sketch=1;fillStyle=zigzag-line;" vertex="1" parent="1">
          <mxGeometry x="320" y="330" width="40" height="20" as="geometry" />
        </mxCell>
        <mxCell id="hLQaSh5dGtS-NS3V5N7V-24" value="&#39;奥&#39;" style="rounded=0;whiteSpace=wrap;html=1;fillColor=#d5e8d4;strokeColor=#82b366;glass=0;shadow=0;sketch=1;fillStyle=zigzag-line;" vertex="1" parent="1">
          <mxGeometry x="360" y="330" width="40" height="20" as="geometry" />
        </mxCell>
        <mxCell id="hLQaSh5dGtS-NS3V5N7V-25" value="&#39;义&#39;" style="rounded=0;whiteSpace=wrap;html=1;fillColor=#d5e8d4;strokeColor=#82b366;glass=0;shadow=0;sketch=1;fillStyle=zigzag-line;" vertex="1" parent="1">
          <mxGeometry x="400" y="330" width="40" height="20" as="geometry" />
        </mxCell>
        <mxCell id="hLQaSh5dGtS-NS3V5N7V-26" value="&#39;\0&#39;" style="rounded=0;whiteSpace=wrap;html=1;fillColor=#d5e8d4;strokeColor=#82b366;glass=0;shadow=0;sketch=1;fillStyle=zigzag-line;" vertex="1" parent="1">
          <mxGeometry x="440" y="330" width="40" height="20" as="geometry" />
        </mxCell>
        <mxCell id="hLQaSh5dGtS-NS3V5N7V-27" value="&#39;内&#39;" style="rounded=0;whiteSpace=wrap;html=1;fillColor=#d5e8d4;strokeColor=#82b366;glass=0;shadow=0;sketch=1;fillStyle=zigzag-line;" vertex="1" parent="1">
          <mxGeometry x="280" y="380" width="40" height="20" as="geometry" />
        </mxCell>
        <mxCell id="hLQaSh5dGtS-NS3V5N7V-28" value="&#39;卷&#39;" style="rounded=0;whiteSpace=wrap;html=1;fillColor=#d5e8d4;strokeColor=#82b366;glass=0;shadow=0;sketch=1;fillStyle=zigzag-line;" vertex="1" parent="1">
          <mxGeometry x="320" y="380" width="40" height="20" as="geometry" />
        </mxCell>
        <mxCell id="hLQaSh5dGtS-NS3V5N7V-29" value="&#39;奥&#39;" style="rounded=0;whiteSpace=wrap;html=1;fillColor=#d5e8d4;strokeColor=#82b366;glass=0;shadow=0;sketch=1;fillStyle=zigzag-line;" vertex="1" parent="1">
          <mxGeometry x="360" y="380" width="40" height="20" as="geometry" />
        </mxCell>
        <mxCell id="hLQaSh5dGtS-NS3V5N7V-30" value="&#39;义&#39;" style="rounded=0;whiteSpace=wrap;html=1;fillColor=#d5e8d4;strokeColor=#82b366;glass=0;shadow=0;sketch=1;fillStyle=zigzag-line;" vertex="1" parent="1">
          <mxGeometry x="400" y="380" width="40" height="20" as="geometry" />
        </mxCell>
        <mxCell id="hLQaSh5dGtS-NS3V5N7V-31" value="&#39;\0&#39;" style="rounded=0;whiteSpace=wrap;html=1;fillColor=#d5e8d4;strokeColor=#82b366;glass=0;shadow=0;sketch=1;fillStyle=zigzag-line;" vertex="1" parent="1">
          <mxGeometry x="440" y="380" width="40" height="20" as="geometry" />
        </mxCell>
        <mxCell id="hLQaSh5dGtS-NS3V5N7V-32" value="&#39;内&#39;" style="rounded=0;whiteSpace=wrap;html=1;fillColor=#d5e8d4;strokeColor=#82b366;glass=0;shadow=0;sketch=1;fillStyle=zigzag-line;" vertex="1" parent="1">
          <mxGeometry x="280" y="430" width="40" height="20" as="geometry" />
        </mxCell>
        <mxCell id="hLQaSh5dGtS-NS3V5N7V-33" value="&#39;卷&#39;" style="rounded=0;whiteSpace=wrap;html=1;fillColor=#d5e8d4;strokeColor=#82b366;glass=0;shadow=0;sketch=1;fillStyle=zigzag-line;" vertex="1" parent="1">
          <mxGeometry x="320" y="430" width="40" height="20" as="geometry" />
        </mxCell>
        <mxCell id="hLQaSh5dGtS-NS3V5N7V-34" value="&#39;奥&#39;" style="rounded=0;whiteSpace=wrap;html=1;fillColor=#d5e8d4;strokeColor=#82b366;glass=0;shadow=0;sketch=1;fillStyle=zigzag-line;" vertex="1" parent="1">
          <mxGeometry x="360" y="430" width="40" height="20" as="geometry" />
        </mxCell>
        <mxCell id="hLQaSh5dGtS-NS3V5N7V-35" value="&#39;义&#39;" style="rounded=0;whiteSpace=wrap;html=1;fillColor=#d5e8d4;strokeColor=#82b366;glass=0;shadow=0;sketch=1;fillStyle=zigzag-line;" vertex="1" parent="1">
          <mxGeometry x="400" y="430" width="40" height="20" as="geometry" />
        </mxCell>
        <mxCell id="hLQaSh5dGtS-NS3V5N7V-36" value="&#39;\0&#39;" style="rounded=0;whiteSpace=wrap;html=1;fillColor=#d5e8d4;strokeColor=#82b366;glass=0;shadow=0;sketch=1;fillStyle=zigzag-line;" vertex="1" parent="1">
          <mxGeometry x="440" y="430" width="40" height="20" as="geometry" />
        </mxCell>
        <mxCell id="hLQaSh5dGtS-NS3V5N7V-37" value="len&lt;font style=&quot;font-size: 11px&quot;&gt;=4&lt;/font&gt;" style="text;html=1;strokeColor=none;fillColor=none;align=center;verticalAlign=middle;whiteSpace=wrap;rounded=0;shadow=0;glass=0;sketch=0;fillStyle=zigzag-line;fontSize=1;spacing=0;" vertex="1" parent="1">
          <mxGeometry x="405" y="360" width="30" height="10" as="geometry" />
        </mxCell>
        <mxCell id="hLQaSh5dGtS-NS3V5N7V-48" value="len&lt;font style=&quot;font-size: 11px&quot;&gt;=&lt;/font&gt;1" style="text;html=1;strokeColor=none;fillColor=none;align=center;verticalAlign=middle;whiteSpace=wrap;rounded=0;shadow=0;glass=0;sketch=0;fillStyle=zigzag-line;fontSize=1;spacing=0;" vertex="1" parent="1">
          <mxGeometry x="285" y="210" width="30" height="10" as="geometry" />
        </mxCell>
        <mxCell id="hLQaSh5dGtS-NS3V5N7V-49" value="" style="endArrow=classic;html=1;rounded=0;fontSize=1;endSize=4;startSize=0;" edge="1" parent="1">
          <mxGeometry width="50" height="50" relative="1" as="geometry">
            <mxPoint x="300" y="220" as="sourcePoint" />
            <mxPoint x="300" y="230" as="targetPoint" />
          </mxGeometry>
        </mxCell>
        <mxCell id="hLQaSh5dGtS-NS3V5N7V-52" value="len&lt;font style=&quot;font-size: 11px&quot;&gt;=2&lt;/font&gt;" style="text;html=1;strokeColor=none;fillColor=none;align=center;verticalAlign=middle;whiteSpace=wrap;rounded=0;shadow=0;glass=0;sketch=0;fillStyle=zigzag-line;fontSize=1;spacing=0;" vertex="1" parent="1">
          <mxGeometry x="325" y="260" width="30" height="10" as="geometry" />
        </mxCell>
        <mxCell id="hLQaSh5dGtS-NS3V5N7V-53" value="" style="endArrow=classic;html=1;rounded=0;fontSize=1;endSize=4;startSize=0;" edge="1" parent="1">
          <mxGeometry width="50" height="50" relative="1" as="geometry">
            <mxPoint x="340" y="270" as="sourcePoint" />
            <mxPoint x="340" y="280" as="targetPoint" />
          </mxGeometry>
        </mxCell>
        <mxCell id="hLQaSh5dGtS-NS3V5N7V-54" value="len&lt;font style=&quot;font-size: 11px&quot;&gt;=3&lt;/font&gt;" style="text;html=1;strokeColor=none;fillColor=none;align=center;verticalAlign=middle;whiteSpace=wrap;rounded=0;shadow=0;glass=0;sketch=0;fillStyle=zigzag-line;fontSize=1;spacing=0;" vertex="1" parent="1">
          <mxGeometry x="365" y="310" width="30" height="10" as="geometry" />
        </mxCell>
        <mxCell id="hLQaSh5dGtS-NS3V5N7V-55" value="" style="endArrow=classic;html=1;rounded=0;fontSize=1;endSize=4;startSize=0;" edge="1" parent="1">
          <mxGeometry width="50" height="50" relative="1" as="geometry">
            <mxPoint x="380" y="320" as="sourcePoint" />
            <mxPoint x="380" y="330" as="targetPoint" />
          </mxGeometry>
        </mxCell>
        <mxCell id="hLQaSh5dGtS-NS3V5N7V-57" value="" style="endArrow=classic;html=1;rounded=0;fontSize=1;endSize=4;startSize=0;" edge="1" parent="1">
          <mxGeometry width="50" height="50" relative="1" as="geometry">
            <mxPoint x="420" y="370" as="sourcePoint" />
            <mxPoint x="420" y="380" as="targetPoint" />
          </mxGeometry>
        </mxCell>
        <mxCell id="hLQaSh5dGtS-NS3V5N7V-58" value="遇到空字符返回长度为4" style="text;html=1;strokeColor=none;fillColor=none;align=center;verticalAlign=middle;whiteSpace=wrap;rounded=0;shadow=0;glass=0;sketch=0;fillStyle=zigzag-line;fontSize=1;spacing=0;" vertex="1" parent="1">
          <mxGeometry x="315" y="410" width="285" height="10" as="geometry" />
        </mxCell>
        <mxCell id="hLQaSh5dGtS-NS3V5N7V-59" value="" style="endArrow=classic;html=1;rounded=0;fontSize=1;endSize=4;startSize=0;" edge="1" parent="1">
          <mxGeometry width="50" height="50" relative="1" as="geometry">
            <mxPoint x="460" y="420" as="sourcePoint" />
            <mxPoint x="460" y="430" as="targetPoint" />
          </mxGeometry>
        </mxCell>
      </root>
    </mxGraphModel>
  </diagram>
</mxfile>
